# xmcd
#
# Track frame offsets: 
#        150
#        14461
#        28517
#        43727
#        56188
#        76921
#        86233
#        147030
#
# Disc length: 2232 seconds
#
# Revision: 0
# Processed by: cddbd v1.5.2PL0 Copyright (c) Steve Scherf et al.
# Submitted via: ExactAudioCopy v0.95b3
#
DISCID=6408b608
DTITLE=People  - I Love You (1968) [FLAC]
DYEAR=1900
DGENRE=
TTITLE0=1000 Years B.C.
TTITLE1=Nothing Can Stop The Elephants
TTITLE2=Ashes Of Me
TTITLE3=Crying Shoes
TTITLE4=I Love You (album version)
TTITLE5=What we Need is A Lot More Jesus and a Lot More Rock 'n' Roll
TTITLE6=The Epic
TTITLE7=I Love You (single version)
EXTD=
EXTT0=
EXTT1=
EXTT2=
EXTT3=
EXTT4=
EXTT5=
EXTT6=
EXTT7=
PLAYORDER=
